<svg id="Layer_1" data-name="Layer 1" xmlns="http://www.w3.org/2000/svg" xmlns:xlink="http://www.w3.org/1999/xlink" viewBox="0 0 410.77 586.72"><defs><style>.cls-1,.cls-2{opacity:0.8;}.cls-1{fill:url(#linear-gradient);}.cls-2{fill:url(#linear-gradient-2);}.cls-3{fill:#98ca3c;opacity:0.5;}</style><linearGradient id="linear-gradient" x1="790" y1="640.02" x2="565" y2="640.02" gradientUnits="userSpaceOnUse"><stop offset="0" stop-color="#a6ce39"/><stop offset="1" stop-color="#71c59c"/><stop offset="1" stop-color="#77d0e8"/><stop offset="1" stop-color="#75d0ec"/></linearGradient><linearGradient id="linear-gradient-2" x1="490" y1="749.35" x2="752.5" y2="749.35" gradientUnits="userSpaceOnUse"><stop offset="0" stop-color="#a6ce39"/><stop offset="1" stop-color="#97cc75"/><stop offset="1" stop-color="#75d0ec"/></linearGradient></defs><path class="cls-1" d="M790,640a149.81,149.81,0,0,1-64.74,123.42l-15.2-21.57L674.8,766.71l11.32,16.07A150.4,150.4,0,0,1,565,769.92V640a75,75,0,0,0,72.82,75c.72,0,1.45,0,2.18,0s1.46,0,2.18,0c.88,0,1.76,0,2.64-.08h.3l2.61-.15h.19c.93-.07,1.85-.14,2.77-.23s1.87-.19,2.8-.3c.75-.09,1.5-.18,2.25-.29.32,0,.63-.08,1-.14.61-.09,1.22-.18,1.83-.29l.5-.08.16,0h.05c.66-.1,1.31-.22,2-.36h0c.31,0,.61-.1.91-.17l1.4-.29,1.43-.31,1.47-.35,1.05-.25c.67-.17,1.34-.34,2-.53l.59-.16c.46-.12.92-.25,1.37-.39l.27-.08,1.5-.45.7-.22c.58-.17,1.15-.36,1.73-.56l1.21-.41,1.26-.44,1.32-.49.69-.26c.23-.09.46-.17.69-.27s.64-.24,1-.38c.56-.21,1.12-.44,1.67-.68l.78-.33.18-.08c.51-.21,1-.43,1.52-.67l2-.93,1.81-.88.6-.29c.61-.31,1.21-.61,1.81-.93l.54-.29.23-.12c.61-.32,1.22-.65,1.82-1l.06,0,0,0,1.68-1,1.17-.69,1.49-.91.59-.37L701,697h0l1.6-1.06.48-.33c.47-.31.94-.63,1.4-1s.82-.57,1.23-.87l.72-.53,1.56-1.16.55-.43.12-.09c.35-.27.71-.54,1-.82l.16-.13c.32-.24.64-.5,1-.76s.83-.67,1.24-1c.58-.49,1.17-1,1.75-1.5s.92-.8,1.38-1.22l.65-.59,0,0c.35-.31.68-.62,1-.94l.18-.17.84-.8c.3-.28.61-.58.9-.88s.74-.72,1.1-1.09c.59-.6,1.18-1.21,1.76-1.82s.91-1,1.36-1.46l.23-.25c.58-.64,1.16-1.3,1.73-2,.43-.49.86-1,1.27-1.49.28-.33.56-.67.83-1l.79-1,.78-1q.51-.64,1-1.29l.61-.8c.37-.5.74-1,1.1-1.51l.42-.59c.49-.68,1-1.37,1.43-2.07.25-.37.51-.75.75-1.13s.5-.75.74-1.13.67-1,1-1.57l.08-.12c.22-.34.43-.69.63-1,.38-.64.76-1.28,1.13-1.92s.72-1.25,1.06-1.89c.54-1,1.08-2,1.59-3,.34-.64.66-1.28,1-1.93.09-.18.18-.36.26-.54s.3-.59.43-.89l.66-1.45c.15-.29.28-.58.4-.87.22-.5.44-1,.65-1.5l.06-.14c.13-.29.25-.59.37-.89s.31-.73.44-1.1c.08-.18.15-.37.22-.55.34-.85.67-1.7,1-2.56s.62-1.73.91-2.6c.24-.71.48-1.42.7-2.13s.44-1.38.64-2.07q0-.14.06-.24c.18-.56.34-1.12.49-1.69.1-.36.19-.71.28-1.06s.26-1,.38-1.45c.39-1.54.74-3.1,1.07-4.66.09-.43.17-.87.25-1.31s.18-.89.25-1.34c.06-.26.1-.51.14-.77.13-.7.24-1.39.34-2.09,0-.2.07-.39.09-.59.1-.61.18-1.21.26-1.82.16-1.17.29-2.34.41-3.51q.14-1.33.24-2.67c.05-.68.1-1.35.13-2s.07-1.1.08-1.65c0-.72.07-1.43.08-2.15,0-1,0-1.91,0-2.87A112.5,112.5,0,0,0,642.9,490,150,150,0,0,1,790,640Z" transform="translate(-447.36 -421.98)"/><path class="cls-2" d="M752.5,602.5c0,1,0,1.92,0,2.87,0,.72,0,1.43-.08,2.15,0,.55,0,1.1-.08,1.65s-.08,1.35-.13,2q-.1,1.34-.24,2.67c-.12,1.17-.25,2.34-.41,3.51-.08.61-.16,1.21-.26,1.82,0,.2,0,.39-.09.59-.1.7-.21,1.39-.34,2.09,0,.26-.08.51-.14.77-.07.45-.15.9-.25,1.34s-.16.88-.25,1.31c-.33,1.56-.68,3.12-1.07,4.66-.12.48-.24,1-.38,1.45s-.18.7-.28,1.06c-.15.56-.32,1.13-.49,1.69q0,.11-.06.24c-.21.69-.42,1.38-.64,2.07s-.46,1.42-.7,2.13c-.29.87-.59,1.74-.91,2.6s-.64,1.71-1,2.56c-.07.18-.14.37-.22.55-.13.37-.28.73-.44,1.1s-.24.6-.37.89l-.06.14c-.21.5-.43,1-.65,1.5l-.4.87-.66,1.45c-.14.3-.29.59-.43.89s-.17.36-.26.54c-.31.64-.63,1.29-1,1.93-.51,1-1.05,2-1.59,3-.35.63-.7,1.26-1.06,1.89s-.75,1.28-1.13,1.92c-.2.34-.41.69-.63,1l-.08.12c-.32.53-.65,1-1,1.57s-.49.76-.74,1.13-.5.76-.75,1.13c-.47.69-.94,1.38-1.43,2.07l-.42.59c-.36.51-.73,1-1.1,1.51l-.61.8q-.48.64-1,1.29l-.78,1-.79,1c-.27.34-.55.68-.83,1-.41.5-.84,1-1.27,1.49-.57.66-1.15,1.32-1.73,2l-.23.25c-.45.49-.9,1-1.36,1.46s-1.17,1.22-1.76,1.82c-.36.37-.73.73-1.1,1.09s-.6.6-.9.88l-.84.8-.18.17c-.33.32-.66.63-1,.94l0,0-.65.59c-.46.42-.92.83-1.38,1.22s-1.17,1-1.75,1.5c-.41.35-.82.69-1.24,1s-.63.52-1,.76l-.16.13c-.34.28-.7.55-1,.82l-.12.09-.55.43-1.56,1.16-.72.53q-.62.45-1.23.87c-.46.33-.93.65-1.4,1l-.48.33-1.6,1.06h0l-1.23.79-.59.37-1.49.91-1.17.69-1.68,1,0,0-.06,0c-.6.35-1.21.68-1.82,1l-.23.12-.54.29c-.6.32-1.2.62-1.81.93l-.6.29-1.81.88-2,.93c-.5.23-1,.46-1.52.67l-.18.08-.78.33c-.55.24-1.11.47-1.67.68-.32.14-.64.26-1,.38s-.46.18-.69.27l-.69.26-1.32.49-1.26.44-1.21.41c-.58.2-1.15.39-1.73.56l-.7.22-1.5.45-.27.08c-.45.14-.91.27-1.37.39l-.59.16c-.67.19-1.34.36-2,.53l-1.05.25-1.47.35-1.43.31-1.4.29c-.3.07-.6.12-.91.17h0c-.65.14-1.3.26-2,.36h-.05l-.16,0-.5.08c-.61.11-1.22.2-1.83.29-.32.06-.63.1-1,.14-.75.11-1.5.2-2.25.29-.93.11-1.86.21-2.8.3s-1.84.16-2.77.23h-.19l-2.61.15h-.3c-.88,0-1.76.06-2.64.08A75,75,0,1,0,565,640V933.7a75,75,0,0,1-75,75V640A149.93,149.93,0,0,1,637.1,490c1,0,1.93,0,2.9,0s1.94,0,2.9,0A112.5,112.5,0,0,1,752.5,602.5Z" transform="translate(-447.36 -421.98)"/><path class="cls-3" d="M803.43,873.35l-35.27,24.86-69.62-98.77a149.5,149.5,0,0,0,39.14-19.36Z" transform="translate(-447.36 -421.98)"/><path class="cls-3" d="M818.16,514.73C748.55,416,612.07,392.34,513.31,462a217.78,217.78,0,0,0-65.95,73.85L483.54,572a169.51,169.51,0,0,1,55-68.5c.88-.65,1.77-1.29,2.67-1.93s1.8-1.26,2.71-1.86A170.32,170.32,0,0,1,737.47,780l27.91,39.6C864.14,750,887.77,613.49,818.16,514.73Z" transform="translate(-447.36 -421.98)"/></svg>